<svg width="32" height="32" viewBox="0 0 32 32" fill="none" xmlns="http://www.w3.org/2000/svg">
<path fill-rule="evenodd" clip-rule="evenodd" d="M2.34246 0C1.12605 0 0.124078 1.00197 0.124078 2.21838L0.12112 21.4473C0.12112 22.4345 1.60152 22.4345 1.60152 21.4473L1.603 2.21838C1.603 1.79615 1.92023 1.47892 2.34246 1.47892H23.0474C23.4696 1.47892 23.7868 1.79615 23.7868 2.21838V15.5287C23.772 16.5284 25.2805 16.5284 25.2657 15.5287V2.21838C25.2657 1.00197 24.2638 0 23.0474 0H2.34246ZM6.77922 5.91569C6.58311 5.91569 6.39502 5.99359 6.25635 6.13227C6.11767 6.27095 6.03976 6.45903 6.03976 6.65515C6.03976 6.85126 6.11767 7.03935 6.25635 7.17802C6.39502 7.3167 6.58311 7.39461 6.77922 7.39461C6.97534 7.39461 7.16343 7.3167 7.3021 7.17802C7.44078 7.03935 7.51869 6.85126 7.51869 6.65515C7.51869 6.45903 7.44078 6.27095 7.3021 6.13227C7.16343 5.99359 6.97534 5.91569 6.77922 5.91569ZM9.66312 5.91716C8.6996 5.98372 8.76837 7.42123 9.73411 7.39609H18.6106C19.5756 7.37538 19.5756 5.93787 18.6106 5.91716H9.73411C9.71046 5.91605 9.68677 5.91605 9.66312 5.91716ZM6.77922 10.3525C6.58311 10.3525 6.39502 10.4304 6.25635 10.569C6.11767 10.7077 6.03976 10.8958 6.03976 11.0919C6.03976 11.288 6.11767 11.4761 6.25635 11.6148C6.39502 11.7535 6.58311 11.8314 6.77922 11.8314C6.97534 11.8314 7.16343 11.7535 7.3021 11.6148C7.44078 11.4761 7.51869 11.288 7.51869 11.0919C7.51869 10.8958 7.44078 10.7077 7.3021 10.569C7.16343 10.4304 6.97534 10.3525 6.77922 10.3525ZM18.6919 10.3525C18.6646 10.3525 18.6372 10.3525 18.6106 10.3554H9.73411C9.71046 10.3543 9.68677 10.3543 9.66312 10.3554C8.75654 10.4678 8.82014 11.8033 9.73411 11.8284H18.6106C19.6259 11.9179 19.7109 10.3739 18.6919 10.3525ZM9.73411 14.7877C8.76911 14.8084 8.76911 16.246 9.73411 16.2667H18.6106C19.6177 16.2888 19.6177 14.7656 18.6106 14.7877H9.73411ZM6.77922 14.7892C6.58311 14.7892 6.39502 14.8671 6.25635 15.0058C6.11767 15.1445 6.03976 15.3326 6.03976 15.5287C6.03976 15.7248 6.11767 15.9129 6.25635 16.0516C6.39502 16.1902 6.58311 16.2681 6.77922 16.2681C6.97534 16.2681 7.16343 16.1902 7.3021 16.0516C7.44078 15.9129 7.51869 15.7248 7.51869 15.5287C7.51869 15.3326 7.44078 15.1445 7.3021 15.0058C7.16343 14.8671 6.97534 14.7892 6.77922 14.7892ZM6.77922 19.226C6.58311 19.226 6.39502 19.3039 6.25635 19.4426C6.11767 19.5812 6.03976 19.7693 6.03976 19.9654C6.03976 20.1616 6.11767 20.3496 6.25635 20.4883C6.39502 20.627 6.58311 20.7049 6.77922 20.7049C6.97534 20.7049 7.16343 20.627 7.3021 20.4883C7.44078 20.3496 7.51869 20.1616 7.51869 19.9654C7.51869 19.7693 7.44078 19.5812 7.3021 19.4426C7.16343 19.3039 6.97534 19.226 6.77922 19.226ZM9.73411 19.226C8.72696 19.2038 8.72696 20.7271 9.73411 20.7049H17.1302C18.1373 20.7271 18.1373 19.2038 17.1302 19.226H9.73411ZM6.77922 23.6627C6.58311 23.6627 6.39502 23.7407 6.25635 23.8793C6.11767 24.018 6.03976 24.2061 6.03976 24.4022C6.03976 24.5983 6.11767 24.7864 6.25635 24.9251C6.39502 25.0638 6.58311 25.1417 6.77922 25.1417C6.97534 25.1417 7.16343 25.0638 7.3021 24.9251C7.44078 24.7864 7.51869 24.5983 7.51869 24.4022C7.51869 24.2061 7.44078 24.018 7.3021 23.8793C7.16343 23.7407 6.97534 23.6627 6.77922 23.6627ZM9.66312 23.6627C8.67668 23.7101 8.74693 25.1905 9.73411 25.1431H15.6513C16.6385 25.1431 16.6385 23.6627 15.6513 23.6627H9.73411C9.71046 23.6616 9.68677 23.6616 9.66312 23.6627ZM0.853186 24.3889C0.755446 24.3899 0.658865 24.4102 0.56903 24.4487C0.479194 24.4872 0.397887 24.5432 0.32981 24.6133C0.261732 24.6834 0.208237 24.7664 0.172416 24.8573C0.136595 24.9483 0.119161 25.0454 0.12112 25.1431L0.124078 28.839C0.124078 30.0554 1.12605 31.0574 2.34246 31.0574H17.1317C18.1314 31.0721 18.1314 29.5636 17.1317 29.5784H2.34246C1.92023 29.5784 1.603 29.2612 1.603 28.839L1.60152 25.1431C1.60351 25.044 1.58556 24.9456 1.54873 24.8535C1.5119 24.7615 1.45695 24.6778 1.38714 24.6075C1.31733 24.5371 1.23409 24.4815 1.14236 24.444C1.05064 24.4064 0.952295 24.3877 0.853186 24.3889ZM24.5278 17.7456C20.8608 17.7456 17.8741 20.7337 17.8741 24.4007C17.8741 28.0677 20.8615 31.0603 24.5278 31.0603C28.1947 31.0603 31.1814 28.0677 31.1814 24.4007C31.1814 20.7337 28.194 17.7456 24.5278 17.7456ZM24.5278 19.226C25.2078 19.2244 25.8814 19.3572 26.5099 19.6167C27.1384 19.8762 27.7095 20.2573 28.1903 20.7381C28.6712 21.219 29.0523 21.7901 29.3118 22.4186C29.5713 23.0471 29.7041 23.7207 29.7025 24.4007C29.7042 25.081 29.5715 25.7548 29.3121 26.3836C29.0527 27.0125 28.6716 27.5839 28.1908 28.0651C27.71 28.5463 27.1389 28.9278 26.5103 29.1878C25.8817 29.4477 25.208 29.581 24.5278 29.5799C23.8475 29.581 23.1738 29.4477 22.5452 29.1878C21.9166 28.9278 21.3455 28.5463 20.8647 28.0651C20.3839 27.5839 20.0029 27.0125 19.7435 26.3836C19.484 25.7548 19.3514 25.081 19.353 24.4007C19.3515 23.7207 19.4842 23.0471 19.7437 22.4186C20.0032 21.7901 20.3844 21.219 20.8652 20.7381C21.346 20.2573 21.9171 19.8762 22.5456 19.6167C23.1742 19.3572 23.8478 19.2244 24.5278 19.226ZM26.863 22.0914C26.6715 22.0976 26.4899 22.178 26.3564 22.3154L23.7417 24.9294L22.6991 23.8824C22.6305 23.8126 22.5488 23.7572 22.4587 23.7192C22.3686 23.6812 22.2719 23.6614 22.1741 23.6609C22.0764 23.6605 21.9795 23.6794 21.889 23.7166C21.7986 23.7538 21.7164 23.8085 21.6472 23.8776C21.578 23.9467 21.5232 24.0288 21.4859 24.1192C21.4486 24.2095 21.4295 24.3064 21.4298 24.4042C21.4302 24.502 21.4498 24.5987 21.4877 24.6889C21.5256 24.779 21.5809 24.8608 21.6505 24.9294L23.2182 26.4964C23.2869 26.5651 23.3684 26.6197 23.4582 26.6569C23.5479 26.6941 23.6442 26.7132 23.7413 26.7132C23.8385 26.7132 23.9347 26.6941 24.0245 26.6569C24.1143 26.6197 24.1958 26.5651 24.2645 26.4964L27.405 23.3625C27.5128 23.2585 27.5865 23.1242 27.6163 22.9773C27.6461 22.8305 27.6306 22.6781 27.5718 22.5403C27.5131 22.4024 27.4138 22.2857 27.2872 22.2055C27.1607 22.1254 27.0127 22.0856 26.863 22.0914Z" fill="#3B4446"/>
</svg>
