<svg width="68" height="71" viewBox="0 0 68 71" fill="none" xmlns="http://www.w3.org/2000/svg">
<path d="M2 18.8119L32.7439 32.476L34.8249 27.7935L4.08102 14.1295L2 18.8119ZM36.3464 67.7105V30.1347H31.2224V67.7105H36.3464ZM34.8249 32.476L65.5688 18.8119L63.4878 14.1295L32.7439 27.7935L34.8249 32.476Z" fill="black"/>
<path d="M3.04041 52.7147V17.8026C3.04041 16.9927 3.51741 16.2587 4.25759 15.9297L32.9518 3.17665C33.482 2.94112 34.0866 2.94112 34.6168 3.17665L63.3111 15.9297C64.0513 16.2587 64.5282 16.9927 64.5282 17.8026V52.7147C64.5282 53.5246 64.0513 54.2587 63.3111 54.5876L34.6168 67.3406C34.0866 67.5759 33.482 67.5759 32.9518 67.3406L4.25759 54.5876C3.51741 54.2587 3.04041 53.5246 3.04041 52.7147Z" stroke="black" stroke-width="5.12398" stroke-linecap="round" stroke-linejoin="round"/>
<path d="M18.4123 9.63867L47.9391 22.7617C48.6793 23.0906 49.1562 23.8246 49.1562 24.6346V36.9666" stroke="black" stroke-width="5.12398" stroke-linecap="round" stroke-linejoin="round"/>
</svg>
