<svg width="83" height="52" viewBox="0 0 83 52" fill="none" xmlns="http://www.w3.org/2000/svg">
<path d="M27.4859 48.4734C31.3496 48.4734 34.4818 45.3413 34.4818 41.4775C34.4818 37.6136 31.3496 34.4816 27.4859 34.4816C23.6222 34.4816 20.49 37.6136 20.49 41.4775C20.49 45.3413 23.6222 48.4734 27.4859 48.4734Z" stroke="black" stroke-width="5.24693" stroke-miterlimit="1.5" stroke-linecap="round" stroke-linejoin="round"/>
<path d="M62.4653 48.4734C66.3291 48.4734 69.4612 45.3413 69.4612 41.4775C69.4612 37.6136 66.3291 34.4816 62.4653 34.4816C58.6014 34.4816 55.4694 37.6136 55.4694 41.4775C55.4694 45.3413 58.6014 48.4734 62.4653 48.4734Z" stroke="black" stroke-width="5.24693" stroke-miterlimit="1.5" stroke-linecap="round" stroke-linejoin="round"/>
<path d="M34.6565 41.4775H51.9714V5.09877C51.9714 3.93966 51.0318 3 49.8726 3H3" stroke="black" stroke-width="5.24693" stroke-linecap="round"/>
<path d="M19.2657 41.4775H12.0949C10.9357 41.4775 9.99609 40.538 9.99609 39.3788V22.2388" stroke="black" stroke-width="5.24693" stroke-linecap="round"/>
<path d="M6.4978 13.4939H20.4896" stroke="black" stroke-width="5.24693" stroke-linecap="round" stroke-linejoin="round"/>
<path d="M51.9712 13.4939H71.5951C72.4244 13.4939 73.1761 13.9824 73.513 14.7403L79.774 28.8275C79.8933 29.0962 79.9548 29.3865 79.9548 29.68V39.3788C79.9548 40.538 79.0153 41.4775 77.8561 41.4775H71.2099" stroke="black" stroke-width="5.24693" stroke-linecap="round"/>
<path d="M51.9712 41.4775H55.4691" stroke="black" stroke-width="5.24693" stroke-linecap="round"/>
</svg>
