<svg width="34" height="31" viewBox="0 0 34 31" fill="none" xmlns="http://www.w3.org/2000/svg">
<path d="M33.1209 29.7216C33.1209 30.0967 32.814 30.4036 32.4389 30.4036H1.0636C0.681642 30.4036 0.381531 30.0967 0.381531 29.7216V14.716C0.381531 14.5864 0.415634 14.4568 0.483841 14.3545C0.606614 14.1635 0.818056 14.0339 1.0636 14.0339C1.43874 14.0339 1.74567 14.3409 1.74567 14.716V29.0395H32.4389C32.814 29.0395 33.1209 29.3464 33.1209 29.7216Z" fill="#343A3B"/>
<path d="M33.1209 16.0801V29.7215C33.1209 30.0967 32.814 30.4036 32.4389 30.4036C32.0569 30.4036 31.7568 30.0967 31.7568 29.7215V16.0801C31.7568 8.33861 25.0248 2.0431 16.7512 2.0431C8.47089 2.0431 1.74567 8.33861 1.74567 16.0801C1.74567 16.4553 1.43874 16.7622 1.0636 16.7622C0.681642 16.7622 0.381531 16.4553 0.381531 16.0801C0.381531 15.4935 0.415634 14.9206 0.483841 14.3545C1.39782 6.66754 8.3413 0.678955 16.7512 0.678955C25.775 0.678955 33.1209 7.58833 33.1209 16.0801Z" fill="#343A3B"/>
<path d="M21.7371 7.89526H12.4678C12.0926 7.89526 11.7857 8.2022 11.7857 8.57733V16.7622C11.7857 17.1373 12.0926 17.4443 12.4678 17.4443H21.7371C22.1191 17.4443 22.4192 17.1373 22.4192 16.7622V8.57733C22.4192 8.2022 22.1191 7.89526 21.7371 7.89526ZM13.1498 9.25941H21.0551V16.0801H13.1498V9.25941Z" fill="#343A3B"/>
<path d="M26.3752 16.4211H17.1059C16.7308 16.4211 16.4238 16.7281 16.4238 17.1032V25.2881C16.4238 25.6632 16.7308 25.9701 17.1059 25.9701H26.3752C26.7504 25.9701 27.0573 25.6632 27.0573 25.2881V17.1032C27.0573 16.7281 26.7504 16.4211 26.3752 16.4211ZM25.6932 24.606H17.788V17.7853H25.6932V24.606Z" fill="#343A3B"/>
<path d="M17.106 16.4211H7.83661C7.45465 16.4211 7.15454 16.7281 7.15454 17.1032V25.2881C7.15454 25.6632 7.45465 25.9701 7.83661 25.9701H17.106C17.4811 25.9701 17.788 25.6632 17.788 25.2881V17.1032C17.788 16.7281 17.4811 16.4211 17.106 16.4211ZM8.51868 17.7853H16.4239V24.606H8.51868V17.7853ZM22.4534 16.4211H20.3117C19.9365 16.4211 19.6296 16.7281 19.6296 17.1032V19.4905C19.6296 19.8656 19.9365 20.1725 20.3117 20.1725H22.4534C22.8285 20.1725 23.1355 19.8656 23.1355 19.4905V17.1032C23.1355 16.7281 22.8285 16.4211 22.4534 16.4211ZM21.7713 18.8084H20.9938V17.7853H21.7713V18.8084Z" fill="#343A3B"/>
<path d="M13.5387 16.4211H11.397C11.0218 16.4211 10.7149 16.7281 10.7149 17.1032V19.4905C10.7149 19.8656 11.0218 20.1725 11.397 20.1725H13.5387C13.9138 20.1725 14.2207 19.8656 14.2207 19.4905V17.1032C14.2207 16.7281 13.9138 16.4211 13.5387 16.4211ZM12.8566 18.8084H12.079V17.7853H12.8566V18.8084Z" fill="#343A3B"/>
<path d="M18.5724 8.06592H16.4307C16.0555 8.06592 15.7486 8.37285 15.7486 8.74799V11.1352C15.7486 11.5104 16.0555 11.8173 16.4307 11.8173H18.5724C18.9475 11.8173 19.2544 11.5104 19.2544 11.1352V8.74799C19.2544 8.37285 18.9475 8.06592 18.5724 8.06592ZM17.8903 10.4532H17.1127V9.43006H17.8903V10.4532Z" fill="#343A3B"/>
</svg>
